<?xml version="1.0" encoding="UTF-8"?><svg id="a" xmlns="http://www.w3.org/2000/svg" xmlns:xlink="http://www.w3.org/1999/xlink" viewBox="0 0 1277.7042 992.0022"><defs><linearGradient id="b" x1="-92.2326" y1="381.033" x2="1427.4821" y2="1004.506" gradientTransform="translate(0 993.7075) scale(1 -1)" gradientUnits="userSpaceOnUse"><stop offset=".011" stop-color="#00a4ca"/><stop offset=".631" stop-color="#00d4ff"/><stop offset=".994" stop-color="#007c84"/></linearGradient><linearGradient id="c" x1="282.0985" y1="583.9007" x2="1014.2576" y2="783.5789" gradientTransform="translate(0 993.7075) scale(1 -1)" gradientUnits="userSpaceOnUse"><stop offset="0" stop-color="#3a3938"/><stop offset=".6399" stop-color="#212120"/><stop offset="1" stop-color="#141413"/></linearGradient><linearGradient id="d" x1="2.385" y1="736.9874" x2="640.1855" y2="736.9874" gradientTransform="translate(0 993.7075) scale(1 -1)" gradientUnits="userSpaceOnUse"><stop offset=".2942" stop-color="#141413"/><stop offset=".9037" stop-color="#252424"/></linearGradient><linearGradient id="e" x1="619.3374" y1="666.0737" x2="1306.6073" y2="601.0617" gradientTransform="translate(0 993.7075) scale(1 -1)" gradientUnits="userSpaceOnUse"><stop offset=".2023" stop-color="#141413"/><stop offset=".928" stop-color="#3f3e3d"/></linearGradient></defs><path d="M33.9648,763.4553v224.9238H0v-224.9238h33.9648ZM72.9116,988.3791H17.3599v-29.7383h53.5894c17.1074,0,31.3467-3.1934,42.7202-9.5859,11.3716-6.3896,19.8745-15.7979,25.5117-28.2285,5.6348-12.4277,8.4536-27.4971,8.4536-45.2109,0-17.6104-2.793-32.5547-8.3779-44.834-5.5854-12.2773-13.9141-21.6104-24.9834-28.002-11.0718-6.3906-24.8086-9.5859-41.2109-9.5859H16.1523v-29.7383h59.0234c22.0396,0,40.9585,4.4785,56.7593,13.4346,15.7988,8.959,27.9272,21.8135,36.3804,38.5693,8.4536,16.7559,12.6807,36.8096,12.6807,60.1562,0,23.4502-4.2529,43.5762-12.7559,60.3818-8.5054,16.8086-20.8086,29.7383-36.9087,38.7959-16.103,9.0576-35.5762,13.5859-58.4199,13.5859Z" stroke-width="0"/><path d="M224.0186,793.6457c-5.7363,0-10.6191-1.9102-14.6431-5.7354-4.0264-3.8242-6.0381-8.4023-6.0381-13.7373,0-5.4346,2.0117-10.0625,6.0381-13.8877,4.0239-3.8242,8.9067-5.7363,14.6431-5.7363,5.6348,0,10.4912,1.9121,14.5669,5.7363,4.0757,3.8252,6.1138,8.4531,6.1138,13.8877,0,5.335-2.0381,9.9131-6.1138,13.7373-4.0757,3.8252-8.9321,5.7354-14.5669,5.7354ZM207.564,988.3791v-168.7686h32.6064v168.7686h-32.6064Z" stroke-width="0"/><path d="M320.479,992.0022c-10.668,0-20.3291-1.9883-28.9834-5.9629-8.6562-3.9746-15.499-9.7861-20.5298-17.4355-5.0337-7.6465-7.5479-16.9561-7.5479-27.9268,0-9.5596,1.835-17.3838,5.5098-23.4736,3.6724-6.0879,8.6279-10.9443,14.8691-14.5674,6.2388-3.623,13.1826-6.3398,20.832-8.1514,7.647-1.8115,15.4966-3.2197,23.5488-4.2266,10.1636-1.1064,18.3647-2.0615,24.606-2.8682,6.2388-.8047,10.7935-2.0879,13.6616-3.8496,2.8682-1.7598,4.3022-4.6045,4.3022-8.5293v-.7539c0-9.5605-2.6938-16.957-8.0762-22.1914-5.3848-5.2314-13.3599-7.8496-23.9268-7.8496-10.9702,0-19.6499,2.3916-26.0396,7.1709-6.3921,4.7812-10.7935,10.1895-13.209,16.2275l-30.9458-7.0947c3.7222-10.2656,9.1328-18.542,16.228-24.832,7.0947-6.2891,15.2466-10.8926,24.4546-13.8125,9.2085-2.918,18.8438-4.3779,28.9082-4.3779,6.7412,0,13.8877.7803,21.4355,2.3398,7.5479,1.5615,14.6665,4.4297,21.3604,8.6045,6.6914,4.1768,12.1519,10.1396,16.3784,17.8877,4.2271,7.751,6.3403,17.7637,6.3403,30.041v112.0088h-32.1533v-23.0967h-1.208c-2.0142,4.1279-5.1582,8.2539-9.4346,12.3789-4.2788,4.1279-9.7368,7.5479-16.3789,10.2646-6.6421,2.7178-14.6426,4.0762-24.002,4.0762ZM327.5742,965.7356c9.1562,0,16.9565-1.7852,23.3979-5.3584,6.4395-3.5713,11.3711-8.2773,14.7939-14.1143,3.4199-5.8359,5.1323-12.0254,5.1323-18.5684v-21.8887c-1.2075,1.1094-3.4722,2.166-6.793,3.1709-3.3213,1.0068-7.0952,1.8633-11.3218,2.5654-4.2266.7061-8.3545,1.335-12.3784,1.8877-4.0264.5537-7.397.9805-10.1138,1.2832-6.3403.9053-12.1284,2.29-17.3604,4.1514-5.2339,1.8633-9.4346,4.5801-12.6045,8.1514-3.1699,3.5732-4.7554,8.2783-4.7554,14.1143,0,8.1514,3.0195,14.291,9.0576,18.416,6.0381,4.1279,13.6851,6.1895,22.9453,6.1895Z" stroke-width="0"/><path d="M435.0542,988.3791v-168.7686h31.248v27.7764h2.2642c3.5215-9.3594,9.2837-16.6807,17.2847-21.9648,8.0005-5.2832,17.5342-7.9248,28.606-7.9248,11.27,0,20.7046,2.6416,28.3042,7.9248,7.5972,5.2842,13.2583,12.6055,16.9824,21.9648h1.8115c4.0239-9.1572,10.416-16.4287,19.1714-21.8135,8.7554-5.3828,19.1714-8.0762,31.248-8.0762,15.2959,0,27.8252,4.8066,37.5869,14.416,9.7617,9.6123,14.6445,24.0771,14.6445,43.4004v113.0654h-32.9092v-110.0469c0-11.4727-3.1206-19.749-9.3594-24.832-6.2412-5.0811-13.6875-7.623-22.3413-7.623-10.6685,0-18.9448,3.2969-24.832,9.8877-5.8877,6.5918-8.8311,14.9209-8.8311,24.9824v107.6318h-32.9082v-112.1602c0-9.1562-2.8188-16.5039-8.4536-22.0391-5.6372-5.5342-13.0342-8.3027-22.1904-8.3027-6.2412,0-12.001,1.6367-17.2847,4.9062-5.2832,3.2715-9.5103,7.7998-12.6802,13.5859-3.1699,5.7881-4.7554,12.4531-4.7554,20.001v104.0088h-32.6064Z" stroke-width="0"/><path d="M744.5137,992.0022c-10.6689,0-20.3301-1.9883-28.9834-5.9629-8.6572-3.9746-15.499-9.7861-20.5303-17.4355-5.0332-7.6465-7.5479-16.9561-7.5479-27.9268,0-9.5596,1.835-17.3838,5.5098-23.4736,3.6729-6.0879,8.6279-10.9443,14.8691-14.5674,6.2393-3.623,13.1826-6.3398,20.832-8.1514,7.6465-1.8115,15.4961-3.2197,23.5488-4.2266,10.1641-1.1064,18.3652-2.0615,24.6064-2.8682,6.2383-.8047,10.793-2.0879,13.6611-3.8496,2.8682-1.7598,4.3018-4.6045,4.3018-8.5293v-.7539c0-9.5605-2.6934-16.957-8.0762-22.1914-5.3848-5.2314-13.3594-7.8496-23.9258-7.8496-10.9707,0-19.6504,2.3916-26.04,7.1709-6.3926,4.7812-10.7939,10.1895-13.209,16.2275l-30.9453-7.0947c3.7217-10.2656,9.1328-18.542,16.2275-24.832,7.0947-6.2891,15.2461-10.8926,24.4551-13.8125,9.208-2.918,18.8428-4.3779,28.9072-4.3779,6.7412,0,13.8887.7803,21.4365,2.3398,7.5469,1.5615,14.666,4.4297,21.3594,8.6045,6.6924,4.1768,12.1523,10.1396,16.3789,17.8877,4.2266,7.751,6.3408,17.7637,6.3408,30.041v112.0088h-32.1543v-23.0967h-1.207c-2.0146,4.1279-5.1592,8.2539-9.4355,12.3789-4.2783,4.1279-9.7363,7.5479-16.3779,10.2646-6.6426,2.7178-14.6426,4.0762-24.002,4.0762ZM751.6084,965.7356c9.1562,0,16.9561-1.7852,23.3984-5.3584,6.4385-3.5713,11.3711-8.2773,14.793-14.1143,3.4199-5.8359,5.1328-12.0254,5.1328-18.5684v-21.8887c-1.208,1.1094-3.4717,2.166-6.793,3.1709-3.3213,1.0068-7.0947,1.8633-11.3213,2.5654-4.2275.7061-8.3545,1.335-12.3789,1.8877-4.0264.5537-7.3965.9805-10.1143,1.2832-6.3398.9053-12.1279,2.29-17.3594,4.1514-5.2344,1.8633-9.4346,4.5801-12.6055,8.1514-3.1699,3.5732-4.7549,8.2783-4.7549,14.1143,0,8.1514,3.0195,14.291,9.0576,18.416,6.0381,4.1279,13.6846,6.1895,22.9453,6.1895Z" stroke-width="0"/><path d="M891.6953,888.2951v100.084h-32.6064v-168.7686h31.7012v27.7764h2.2637c3.8242-9.1572,9.8125-16.4287,17.9639-21.8135,8.1514-5.3828,18.6172-8.0762,31.3994-8.0762,11.4727,0,21.5107,2.3916,30.1152,7.1699,8.6045,4.7812,15.2959,11.9023,20.0771,21.3604,4.7783,9.4609,7.1709,21.1855,7.1709,35.1729v107.1787h-32.6064v-103.2539c0-12.1758-3.2227-21.7607-9.6621-28.7568-6.4414-6.9932-15.1963-10.4912-26.2656-10.4912-7.5479,0-14.3174,1.6865-20.3037,5.0566-5.9883,3.373-10.6943,8.1777-14.1143,14.416-3.4229,6.2412-5.1328,13.8887-5.1328,22.9453Z" stroke-width="0"/><path d="M1109.6758,819.6106v26.417h-92.083v-26.417h92.083ZM1042.1982,779.4563h32.7578v159.4092c0,7.751,1.6084,13.4121,4.8311,16.9824,3.2188,3.5732,8.4014,5.3594,15.5479,5.3594,1.71,0,3.5479-.0996,5.5098-.3018,1.9629-.2012,3.9482-.5029,5.9629-.9062l6.1895,27.1719c-3.3213,1.1094-6.9443,1.9629-10.8691,2.5664-3.9248.6045-7.8496.9062-11.7744.9062-14.5928,0-26.2666-4.0996-35.0215-12.3027-8.7559-8.2012-13.1338-19.1455-13.1338-32.833v-166.0518Z" stroke-width="0"/><path d="M1204.0234,991.8508c-16.5068,0-30.7959-3.5703-42.8721-10.7178-12.0762-7.1445-21.3604-17.2324-27.8516-30.2666-6.4902-13.0312-9.7363-28.252-9.7363-45.6641,0-17.3076,3.1934-32.5547,9.5859-45.7393,6.3896-13.1826,15.3975-23.4736,27.0205-30.8711,11.624-7.3965,25.2852-11.0947,40.9854-11.0947,9.5596,0,18.8174,1.5615,27.7754,4.6797,8.9561,3.1201,17.0059,8.0527,24.1533,14.7939,7.1445,6.7432,12.8047,15.498,16.9824,26.2656,4.1748,10.7695,6.2646,23.752,6.2646,38.9473v11.7744h-134.2002v-24.6064h117.293l-15.2471,8.1523c0-10.3643-1.6104-19.5234-4.8301-27.4746-3.2217-7.9482-8.0264-14.1641-14.416-18.6426-6.3926-4.4766-14.3174-6.7178-23.7754-6.7178s-17.5371,2.2646-24.2285,6.793c-6.6943,4.5283-11.8008,10.5176-15.3223,17.9639-3.5244,7.4482-5.2832,15.6006-5.2832,24.4551v16.7559c0,11.5742,2.0117,21.3857,6.0381,29.4365,4.0234,8.0527,9.6348,14.1895,16.8311,18.416,7.1943,4.2275,15.5723,6.3408,25.1348,6.3408,6.2383,0,11.8994-.9062,16.9824-2.7178,5.0801-1.8115,9.4844-4.5283,13.208-8.1514,3.7227-3.623,6.541-8.0996,8.4541-13.4346l31.0967,5.8867c-2.5166,9.0576-6.9443,17.0088-13.2842,23.8516-6.3398,6.8447-14.3174,12.1514-23.9268,15.9258-9.6113,3.7734-20.5557,5.6602-32.832,5.6602Z" stroke-width="0"/><path d="M1257.117,257.2618c0,127.083-103.2452,230.1735-230.3283,230.1735-57.2725,0-109.5917-20.8967-149.992-55.5698,24.9212,18.5749,55.7246,29.565,89.3141,29.565,82.8129,0,149.9921-67.1791,149.9921-149.992s-67.1791-149.8372-149.9921-149.8372c-41.7934,0-79.5623,17.1817-106.8055,44.5797-1.8574,1.8575-3.4053,3.5602-4.9532,5.4177l-57.7369,57.5821-42.2578,42.4126-87.3018,87.3019-26.9335,26.7787-106.0315,106.1863-.774.774c-56.1889,55.8794-133.8938,90.3977-219.493,90.3977-86.9923,0-165.9354-35.7566-222.2792-93.3387-2.6314-2.6315-5.1081-5.2629-7.7395-8.0491-.1548-.1548-.3096-.3096-.6192-.6192-2.1671-2.4767-4.4889-5.1081-6.656-7.5847-32.8156-39.936-52.474-90.8621-52.474-146.5866,0-127.083,103.0905-230.1735,230.1735-230.1735,54.6411,0,104.948,19.194,144.2648,51.0809-23.9925-16.4078-53.2479-26.1596-84.6704-26.1596-82.8129,0-149.992,67.0243-149.992,149.8372s67.1791,149.992,149.992,149.992c41.1743,0,78.1692-16.4078,105.2576-43.0318,1.2383-1.0835,2.1671-2.3219,3.4054-3.4054l61.6067-61.6066,41.7934-41.7934,87.147-87.1471,124.142-124.2968C794.1386,38.6976,875.7132,0,966.1108,0c83.4321,0,159.2795,32.8156,215.1588,86.3731,1.7028,1.5479,3.5603,3.0958,5.1082,4.9533,7.1203,7.0171,13.8274,14.3438,20.1228,21.9802,1.8574,2.0123,3.4053,4.1794,5.1081,6.3464,28.4814,38.388,45.5084,86.0635,45.5084,137.6088Z" fill="url(#b)" stroke-width="0"/><path d="M1257.117,257.2618c0,127.083-103.2452,230.1735-230.3283,230.1735-57.2725,0-109.5917-20.8967-149.992-55.5698,24.9212,18.5749,55.7246,29.565,89.3141,29.565,82.8129,0,149.9921-67.1791,149.9921-149.992s-67.1791-149.8372-149.9921-149.8372c-41.7934,0-79.5623,17.1817-106.8055,44.5797-1.8574,1.8575-3.4053,3.5602-4.9532,5.4177l-57.7369,57.5821-42.2578,42.4126-87.3018,87.3019-26.9335,26.7787-106.0315,106.1863-.774.774c-56.1889,55.8794-133.8938,90.3977-219.493,90.3977-86.9923,0-165.9354-35.7566-222.2792-93.3387-2.6314-2.6315-5.1081-5.2629-7.7395-8.0491-.1548-.1548-.3096-.3096-.6192-.6192-2.1671-2.4767-4.4889-5.1081-6.656-7.5847-32.8156-39.936-52.474-90.8621-52.474-146.5866,0-127.083,103.0905-230.1735,230.1735-230.1735,54.6411,0,104.948,19.194,144.2648,51.0809-23.9925-16.4078-53.2479-26.1596-84.6704-26.1596-82.8129,0-149.992,67.0243-149.992,149.8372s67.1791,149.992,149.992,149.992c41.1743,0,78.1692-16.4078,105.2576-43.0318,1.2383-1.0835,2.1671-2.3219,3.4054-3.4054l61.6067-61.6066,41.7934-41.7934,87.147-87.1471,124.142-124.2968C794.1386,38.6976,875.7132,0,966.1108,0c83.4321,0,159.2795,32.8156,215.1588,86.3731,1.7028,1.5479,3.5603,3.0958,5.1082,4.9533,7.1203,7.0171,13.8274,14.3438,20.1228,21.9802,1.8574,2.0123,3.4053,4.1794,5.1081,6.3464,28.4814,38.388,45.5084,86.0635,45.5084,137.6088Z" fill="url(#c)" stroke-width="0"/><path d="M622.3211,178.7831l-23.9925,23.2186-93.6483,92.8743-82.1938-86.8375-1.7027-1.5479c-6.0368-6.3464-12.8476-12.0737-20.1228-17.1817-.774-.6192-1.3931-1.0835-2.1671-1.5479-39.3168-31.8869-89.6237-51.0809-144.2648-51.0809-127.083,0-230.1735,103.0905-230.1735,230.1735,0,55.7246,19.6584,106.6507,52.474,146.5866C30.2473,458.9539,2.385,388.5242,2.385,311.4385,2.385,139.4663,141.8513,0,313.8236,0c86.5279,0,164.8519,35.2922,221.1957,92.2551l4.3341,4.4889,82.9677,82.039Z" fill="url(#d)" stroke-width="0"/><path d="M1277.7042,311.4401c0,172.1271-139.4678,311.5933-311.5949,311.5933-89.9333,0-171.1968-38.2333-228.0064-99.3755l-79.8719-79.8719,26.9335-26.7787,87.3018-87.3018,81.8858,81.7294c1.7027,2.0123,3.2506,3.715,5.1081,5.5725,5.2628,5.2629,10.9901,10.2162,17.027,14.5503.1021.3096.2059.4117.3096.3096,40.4003,34.6731,92.718,55.5698,149.9904,55.5698,127.083,0,230.3283-103.0905,230.3283-230.1735,0-51.5452-17.0254-99.2207-45.5068-137.6091,41.3291,52.9387,66.0956,119.4986,66.0956,191.7858Z" fill="url(#e)" stroke-width="0"/></svg>